<?xml version="1.0" encoding="utf-8"?>
<!-- Generator: Adobe Illustrator 15.0.0, SVG Export Plug-In . SVG Version: 6.00 Build 0)  -->
<!DOCTYPE svg PUBLIC "-//W3C//DTD SVG 1.1//EN" "http://www.w3.org/Graphics/SVG/1.1/DTD/svg11.dtd">
<svg version="1.1" id="レイヤー_1" xmlns="http://www.w3.org/2000/svg" xmlns:xlink="http://www.w3.org/1999/xlink" x="0px"
	 y="0px" width="24px" height="24px" viewBox="0 0 24 24" enable-background="new 0 0 24 24" xml:space="preserve">
<g id="g10" transform="matrix(1.3333333,0,0,-1.3333333,0,1365.3333)">
	<g id="g12" transform="scale(0.1)">
		<path id="path14" fill="#2F6DB6" d="M180,10149.377c0,49.362-40.02,89.378-89.377,89.378c-49.362,0-89.377-40.016-89.377-89.378
			c0-44.611,32.684-81.584,75.414-88.293v62.461H53.965v25.832h22.694v19.691c0,22.401,13.341,34.771,33.754,34.771
			c9.778,0,20.01-1.743,20.01-1.743v-21.994H119.15c-11.104,0-14.561-6.893-14.561-13.96v-16.766h24.785l-3.962-25.832H104.59
			v-62.461C147.312,10067.793,180,10104.766,180,10149.377"/>
		<path id="path16" fill="#FFFFFF" d="M125.413,10123.545l3.962,25.832H104.59v16.766c0,7.067,3.457,13.96,14.561,13.96h11.272
			v21.994c0,0-10.232,1.743-20.01,1.743c-20.413,0-33.754-12.37-33.754-34.771v-19.691H53.965v-25.832h22.694v-62.461
			c4.552-0.711,9.214-1.084,13.964-1.084c4.75,0,9.419,0.373,13.967,1.084v62.461H125.413"/>
	</g>
</g>
</svg>
