<?xml version="1.0" encoding="utf-8"?>
<!-- Generator: Adobe Illustrator 15.0.0, SVG Export Plug-In . SVG Version: 6.00 Build 0)  -->
<!DOCTYPE svg PUBLIC "-//W3C//DTD SVG 1.1//EN" "http://www.w3.org/Graphics/SVG/1.1/DTD/svg11.dtd">
<svg version="1.1" id="レイヤー_1" xmlns="http://www.w3.org/2000/svg" xmlns:xlink="http://www.w3.org/1999/xlink" x="0px"
	 y="0px" width="24px" height="24px" viewBox="0 0 24 24" enable-background="new 0 0 24 24" xml:space="preserve">
<path fill="#2DAD38" d="M23.876,11.938c0,6.594-5.346,11.938-11.938,11.938C5.345,23.875,0,18.531,0,11.938
	C0,5.345,5.345,0,11.938,0C18.53,0,23.876,5.345,23.876,11.938"/>
<path fill="#FFFFFF" d="M19.879,11.221c0-3.553-3.563-6.444-7.941-6.444c-4.378,0-7.94,2.891-7.94,6.444
	c0,3.186,2.825,5.852,6.641,6.357c0.258,0.055,0.61,0.171,0.699,0.392c0.08,0.201,0.053,0.515,0.026,0.719
	c0,0-0.093,0.56-0.114,0.678c-0.034,0.202-0.159,0.787,0.688,0.429c0.847-0.356,4.573-2.692,6.239-4.61l0,0
	C19.327,13.924,19.879,12.643,19.879,11.221"/>
<path fill="#2DAD38" d="M10.325,9.504H9.768c-0.085,0-0.155,0.069-0.155,0.154v3.46c0,0.085,0.069,0.154,0.155,0.154h0.557
	c0.085,0,0.154-0.069,0.154-0.154v-3.46C10.479,9.573,10.41,9.504,10.325,9.504"/>
<path fill="#2DAD38" d="M14.158,9.504h-0.557c-0.086,0-0.155,0.069-0.155,0.154v2.056l-1.585-2.141
	c-0.004-0.005-0.008-0.011-0.012-0.016c0,0-0.001-0.001-0.001-0.001c-0.003-0.004-0.006-0.006-0.01-0.01
	c-0.001,0-0.001-0.001-0.002-0.002c-0.003-0.002-0.005-0.005-0.008-0.007c-0.001-0.001-0.003-0.002-0.004-0.003
	c-0.003-0.002-0.005-0.004-0.008-0.006c-0.001-0.001-0.003-0.001-0.004-0.002c-0.003-0.001-0.006-0.003-0.009-0.004
	c-0.001-0.001-0.003-0.002-0.005-0.002c-0.002-0.001-0.005-0.003-0.009-0.004c-0.001-0.001-0.003-0.001-0.005-0.002
	c-0.003,0-0.006-0.001-0.009-0.002c-0.002-0.001-0.004-0.001-0.005-0.002c-0.003,0-0.006-0.001-0.009-0.002
	c-0.002,0-0.004,0-0.007,0c-0.002,0-0.005,0-0.008-0.001c-0.002,0-0.005,0-0.008,0s-0.004,0-0.005,0h-0.557
	c-0.085,0-0.155,0.069-0.155,0.154v3.46c0,0.085,0.07,0.154,0.155,0.154h0.557c0.085,0,0.155-0.069,0.155-0.154v-2.055l1.588,2.145
	c0.01,0.015,0.023,0.027,0.038,0.038c0.001,0,0.002,0,0.002,0.001c0.003,0.001,0.006,0.003,0.01,0.005
	c0.001,0.001,0.003,0.002,0.004,0.002c0.002,0.003,0.005,0.004,0.008,0.005c0.002,0.001,0.004,0.002,0.007,0.003
	c0.001,0.001,0.003,0.001,0.006,0.002s0.006,0.002,0.01,0.003h0.003c0.013,0.005,0.025,0.006,0.039,0.006h0.557
	c0.085,0,0.154-0.069,0.154-0.154v-3.46C14.313,9.573,14.243,9.504,14.158,9.504"/>
<path fill="#2DAD38" d="M8.982,12.406H7.469V9.658c0-0.085-0.069-0.154-0.155-0.154H6.757c-0.085,0-0.154,0.069-0.154,0.154v3.459
	v0.001c0,0.041,0.017,0.079,0.043,0.106c0,0.001,0.001,0.002,0.002,0.002c0.001,0.001,0.001,0.002,0.002,0.002
	c0.028,0.028,0.066,0.044,0.107,0.044l0,0h2.225c0.085,0,0.154-0.069,0.154-0.155v-0.556C9.136,12.477,9.067,12.406,8.982,12.406"/>
<path fill="#2DAD38" d="M17.233,10.371c0.086,0,0.154-0.069,0.154-0.155V9.658c0-0.085-0.068-0.154-0.154-0.154H15.01h-0.001
	c-0.041,0-0.079,0.016-0.107,0.043c-0.001,0-0.001,0.001-0.002,0.001c-0.001,0.001-0.002,0.001-0.002,0.002
	c-0.027,0.028-0.043,0.065-0.043,0.106l0,0v3.46l0,0c0,0.042,0.017,0.079,0.043,0.106c0,0.001,0.002,0.002,0.002,0.002
	c0.001,0.001,0.002,0.002,0.002,0.002c0.028,0.028,0.066,0.044,0.107,0.044h0.001h2.224c0.086,0,0.154-0.069,0.154-0.154v-0.557
	c0-0.086-0.068-0.155-0.154-0.155H15.72v-0.585h1.514c0.086,0,0.154-0.069,0.154-0.155V11.11c0-0.085-0.068-0.155-0.154-0.155H15.72
	v-0.584H17.233z"/>
<line fill="none" x1="-229" y1="319" x2="-229" y2="-293.288"/>
</svg>
