<?xml version="1.0" encoding="utf-8"?>
<!-- Generator: Adobe Illustrator 15.0.0, SVG Export Plug-In . SVG Version: 6.00 Build 0)  -->
<!DOCTYPE svg PUBLIC "-//W3C//DTD SVG 1.1//EN" "http://www.w3.org/Graphics/SVG/1.1/DTD/svg11.dtd">
<svg version="1.1" id="Logo_FIXED" xmlns="http://www.w3.org/2000/svg" xmlns:xlink="http://www.w3.org/1999/xlink" x="0px" y="0px"
	 width="24px" height="24px" viewBox="408.945 285.64 24 24" enable-background="new 408.945 285.64 24 24" xml:space="preserve">
<title>Twitter_Logo_Blue</title>
<path fill="#1DA1F2" d="M418.162,303.734c5.66,0,8.755-4.689,8.755-8.755c0-0.134,0-0.266-0.009-0.397
	c0.603-0.437,1.123-0.976,1.536-1.593c-0.563,0.249-1.157,0.412-1.767,0.484c0.642-0.385,1.123-0.99,1.352-1.702
	c-0.604,0.358-1.266,0.61-1.954,0.747c-1.164-1.24-3.115-1.299-4.354-0.133c-0.8,0.751-1.139,1.871-0.891,2.94
	c-2.474-0.125-4.779-1.293-6.342-3.215c-0.817,1.406-0.399,3.205,0.953,4.107c-0.489-0.014-0.969-0.146-1.396-0.385
	c0,0.013,0,0.026,0,0.039c0,1.465,1.033,2.727,2.469,3.016c-0.453,0.124-0.928,0.143-1.39,0.054
	c0.403,1.253,1.559,2.111,2.876,2.137c-1.09,0.856-2.437,1.321-3.822,1.319c-0.245,0-0.49-0.014-0.733-0.043
	c1.407,0.903,3.045,1.381,4.717,1.379"/>
</svg>
