<?xml version="1.0" encoding="utf-8"?>
<!-- Generator: Adobe Illustrator 15.0.0, SVG Export Plug-In . SVG Version: 6.00 Build 0)  -->
<!DOCTYPE svg PUBLIC "-//W3C//DTD SVG 1.1//EN" "http://www.w3.org/Graphics/SVG/1.1/DTD/svg11.dtd">
<svg version="1.1" id="レイヤー_1" xmlns="http://www.w3.org/2000/svg" xmlns:xlink="http://www.w3.org/1999/xlink" x="0px"
	 y="0px" width="24px" height="24px" viewBox="0 0 24 24" enable-background="new 0 0 24 24" xml:space="preserve">
<line fill="none" x1="-229" y1="319" x2="-229" y2="-293.288"/>
<g>
	<defs>
		<rect id="SVGID_1_" width="24" height="24"/>
	</defs>
	<clipPath id="SVGID_2_">
		<use xlink:href="#SVGID_1_"  overflow="visible"/>
	</clipPath>
	<path clip-path="url(#SVGID_2_)" fill="#E72410" d="M22.54,6.67c-0.253-0.953-0.998-1.703-1.944-1.958C18.879,4.25,12,4.25,12,4.25
		s-6.88,0-8.595,0.462C2.458,4.967,1.712,5.718,1.46,6.67C1,8.397,1,12,1,12s0,3.604,0.46,5.329
		c0.252,0.953,0.999,1.703,1.945,1.958C5.12,19.75,12,19.75,12,19.75s6.879,0,8.596-0.463c0.946-0.255,1.691-1.005,1.944-1.958
		C23,15.604,23,12,23,12S23,8.397,22.54,6.67"/>
	<polygon clip-path="url(#SVGID_2_)" fill="#FFFFFF" points="9.75,15.271 9.75,8.729 15.5,12 	"/>
</g>
</svg>
